<svg width="113" height="26" viewBox="0 0 113 26" fill="none" xmlns="http://www.w3.org/2000/svg">
<g clip-path="url(#clip0_223_818)">
<path d="M33.517 3.54545H38.0682L42.875 15.2727H43.0795L47.8864 3.54545H52.4375V21H48.858V9.6392H48.7131L44.196 20.9148H41.7585L37.2415 9.59659H37.0966V21H33.517V3.54545ZM57.6513 25.9091C57.1911 25.9091 56.7592 25.8722 56.3558 25.7983C55.9581 25.7301 55.6286 25.642 55.3672 25.5341L56.1854 22.8239C56.6115 22.9545 56.995 23.0256 57.3359 23.0369C57.6825 23.0483 57.9808 22.9688 58.2308 22.7983C58.4865 22.6278 58.6939 22.3381 58.853 21.929L59.0661 21.375L54.37 7.90909H58.1882L60.8984 17.5227H61.0348L63.7706 7.90909H67.6143L62.5263 22.4148C62.282 23.1193 61.9496 23.733 61.5291 24.2557C61.1143 24.7841 60.5888 25.1903 59.9524 25.4744C59.3161 25.7642 58.549 25.9091 57.6513 25.9091ZM75.0952 21V3.54545H81.9815C83.3054 3.54545 84.4332 3.7983 85.3651 4.30398C86.2969 4.80398 87.0071 5.5 87.4957 6.39204C87.9901 7.27841 88.2372 8.30114 88.2372 9.46023C88.2372 10.6193 87.9872 11.642 87.4872 12.5284C86.9872 13.4148 86.2628 14.1051 85.3139 14.5994C84.3707 15.0937 83.2287 15.3409 81.8878 15.3409H77.4986V12.3835H81.2912C82.0014 12.3835 82.5866 12.2614 83.0469 12.017C83.5128 11.767 83.8594 11.4233 84.0866 10.9858C84.3196 10.5426 84.4361 10.0341 84.4361 9.46023C84.4361 8.88068 84.3196 8.375 84.0866 7.94318C83.8594 7.50568 83.5128 7.16761 83.0469 6.92898C82.581 6.68466 81.9901 6.5625 81.2741 6.5625H78.7855V21H75.0952ZM96.321 21.2557C94.9744 21.2557 93.8153 20.983 92.8438 20.4375C91.8778 19.8864 91.1335 19.108 90.6108 18.1023C90.0881 17.0909 89.8267 15.8949 89.8267 14.5142C89.8267 13.1676 90.0881 11.9858 90.6108 10.9688C91.1335 9.9517 91.8693 9.15909 92.8182 8.59091C93.7727 8.02273 94.892 7.73864 96.1761 7.73864C97.0398 7.73864 97.8438 7.87784 98.5881 8.15625C99.3381 8.42898 99.9915 8.84091 100.548 9.39205C101.111 9.94318 101.548 10.6364 101.861 11.4716C102.173 12.3011 102.33 13.2727 102.33 14.3864V15.3835H91.2756V13.1335H98.9119C98.9119 12.6108 98.7983 12.1477 98.571 11.7443C98.3438 11.3409 98.0284 11.0256 97.625 10.7983C97.2273 10.5653 96.7642 10.4489 96.2358 10.4489C95.6847 10.4489 95.196 10.5767 94.7699 10.8324C94.3494 11.0824 94.0199 11.4205 93.7812 11.8466C93.5426 12.267 93.4205 12.7358 93.4148 13.2528V15.392C93.4148 16.0398 93.5341 16.5994 93.7727 17.071C94.017 17.5426 94.3608 17.9062 94.804 18.1619C95.2472 18.4176 95.7727 18.5455 96.3807 18.5455C96.7841 18.5455 97.1534 18.4886 97.4886 18.375C97.8239 18.2614 98.1108 18.0909 98.3494 17.8636C98.5881 17.6364 98.7699 17.358 98.8949 17.0284L102.253 17.25C102.082 18.0568 101.733 18.7614 101.205 19.3636C100.682 19.9602 100.006 20.4261 99.1761 20.7614C98.3523 21.0909 97.4006 21.2557 96.321 21.2557ZM111.662 7.90909V10.6364H103.778V7.90909H111.662ZM105.568 4.77273H109.199V16.9773C109.199 17.3125 109.25 17.5739 109.352 17.7614C109.455 17.9432 109.597 18.071 109.778 18.1449C109.966 18.2187 110.182 18.2557 110.426 18.2557C110.597 18.2557 110.767 18.2415 110.938 18.2131C111.108 18.179 111.239 18.1534 111.33 18.1364L111.901 20.8381C111.719 20.8949 111.463 20.9602 111.134 21.0341C110.804 21.1136 110.403 21.1619 109.932 21.179C109.057 21.2131 108.29 21.0966 107.631 20.8295C106.977 20.5625 106.469 20.1477 106.105 19.5852C105.741 19.0227 105.563 18.3125 105.568 17.4545V4.77273Z" fill="#7C58D3"/>
<path fill-rule="evenodd" clip-rule="evenodd" d="M7.96687 0C9.86486 0 11.4069 2.31243 11.4069 5.08734C11.4069 7.86229 9.86486 10.1747 7.96687 10.1747C6.06893 10.1747 4.52685 7.86229 4.52685 5.08734C4.64547 2.31243 6.06893 0 7.96687 0ZM12.3559 12.3715C16.3891 12.3715 16.8635 14.9152 20.1849 19.4244C21.8456 22.6618 19.7105 24.6274 15.9146 23.818C14.2539 23.0087 13.0676 22.6618 11.8814 22.6618C9.74615 22.7774 9.27172 24.0493 6.89928 23.9337C5.00133 23.9337 4.17098 23.1243 4.05236 21.9681C3.81512 20.6963 4.40823 20.0025 5.00133 18.9619C7.25514 15.0308 9.62756 11.909 12.3559 12.3715ZM1.44269 7.63099C0.0192232 8.20909 -0.455262 10.2903 0.493716 12.3715C1.44269 14.4527 3.22201 15.7245 4.64547 15.1464C6.06893 14.5683 6.54341 12.4871 5.59444 10.4059C4.64547 8.32479 2.86615 7.05289 1.44269 7.63099ZM22.5574 7.63099C23.9808 8.20909 24.4553 10.2903 23.5063 12.3715C22.676 14.4527 20.778 15.7245 19.3546 15.1464C17.9311 14.5683 17.4566 12.4871 18.4056 10.4059C19.3546 8.32479 21.1339 7.05289 22.5574 7.63099ZM15.9146 0C17.8125 0 19.3546 2.31243 19.3546 5.08734C19.3546 7.86229 17.8125 10.1747 15.9146 10.1747C14.0166 10.1747 12.4745 7.86229 12.4745 5.08734C12.4745 2.31243 14.0166 0 15.9146 0Z" fill="#7C58D3"/>
</g>
<defs>
<clipPath id="clip0_223_818">
<rect width="113" height="26" fill="white"/>
</clipPath>
</defs>
</svg>
