<svg width="120" height="29" viewBox="0 0 120 29" fill="none" xmlns="http://www.w3.org/2000/svg">
<g clip-path="url(#clip0_223_818)">
<path fill-rule="evenodd" clip-rule="evenodd" d="M9.7898 1C12.0041 1 13.8031 3.69783 13.8031 6.93524C13.8031 10.1727 12.0041 12.8705 9.7898 12.8705C7.57554 12.8705 5.77644 10.1727 5.77644 6.93524C5.91483 3.69783 7.57554 1 9.7898 1ZM14.9103 15.4334C19.6157 15.4334 20.1692 18.401 24.0441 23.6618C25.9816 27.4387 23.4907 29.7319 19.0621 28.7876C17.1246 27.8435 15.7406 27.4387 14.3567 27.4387C11.8656 27.5736 11.3121 29.0575 8.54428 28.9226C6.33 28.9226 5.36126 27.9783 5.22287 26.6294C4.94609 25.1457 5.63805 24.3362 6.33 23.1222C8.95945 18.5359 11.7273 14.8938 14.9103 15.4334ZM2.17825 9.90282C0.517544 10.5773 -0.0360222 13.0053 1.07112 15.4334C2.17825 17.8615 4.25413 19.3452 5.91483 18.6708C7.57554 17.9963 8.1291 15.5683 7.02196 13.1402C5.91483 10.7123 3.83896 9.22838 2.17825 9.90282ZM26.812 9.90282C28.4727 10.5773 29.0263 13.0053 27.9191 15.4334C26.9504 17.8615 24.7361 19.3452 23.0754 18.6708C21.4147 17.9963 20.8611 15.5683 21.9683 13.1402C23.0754 10.7123 25.1513 9.22838 26.812 9.90282ZM19.0621 1C21.2763 1 23.0754 3.69783 23.0754 6.93524C23.0754 10.1727 21.2763 12.8705 19.0621 12.8705C16.8478 12.8705 15.0487 10.1727 15.0487 6.93524C15.0487 3.69783 16.8478 1 19.0621 1Z" fill="#7B61FF"/>
<path d="M39.7831 22.192C39.3351 22.192 38.9911 22.064 38.7511 21.808C38.5111 21.552 38.3911 21.2 38.3911 20.752V6.328C38.3911 5.864 38.5191 5.512 38.7751 5.272C39.0311 5.016 39.3831 4.888 39.8311 4.888C40.2311 4.888 40.5431 4.968 40.7671 5.128C41.0071 5.272 41.2231 5.528 41.4151 5.896L47.3431 16.864H46.5751L52.5031 5.896C52.6951 5.528 52.9031 5.272 53.1271 5.128C53.3511 4.968 53.6631 4.888 54.0631 4.888C54.5111 4.888 54.8551 5.016 55.0951 5.272C55.3351 5.512 55.4551 5.864 55.4551 6.328V20.752C55.4551 21.2 55.3351 21.552 55.0951 21.808C54.8711 22.064 54.5271 22.192 54.0631 22.192C53.6151 22.192 53.2711 22.064 53.0311 21.808C52.7911 21.552 52.6711 21.2 52.6711 20.752V9.64H53.1991L48.1591 18.832C47.9991 19.104 47.8311 19.304 47.6551 19.432C47.4791 19.56 47.2391 19.624 46.9351 19.624C46.6311 19.624 46.3831 19.56 46.1911 19.432C45.9991 19.288 45.8311 19.088 45.6871 18.832L40.5991 9.616H41.1751V20.752C41.1751 21.2 41.0551 21.552 40.8151 21.808C40.5911 22.064 40.2471 22.192 39.7831 22.192ZM61.8671 26.512C61.5151 26.512 61.2271 26.416 61.0031 26.224C60.7791 26.048 60.6431 25.808 60.5951 25.504C60.5631 25.2 60.6191 24.88 60.7631 24.544L62.3951 20.92V22.168L58.0271 12.064C57.8831 11.712 57.8351 11.384 57.8831 11.08C57.9311 10.776 58.0751 10.536 58.3151 10.36C58.5711 10.168 58.9151 10.072 59.3471 10.072C59.7151 10.072 60.0111 10.16 60.2351 10.336C60.4591 10.496 60.6591 10.808 60.8351 11.272L64.0751 19.36H63.3551L66.6671 11.248C66.8431 10.8 67.0511 10.496 67.2911 10.336C67.5311 10.16 67.8511 10.072 68.2511 10.072C68.6031 10.072 68.8831 10.168 69.0911 10.36C69.2991 10.536 69.4271 10.776 69.4751 11.08C69.5231 11.368 69.4671 11.688 69.3071 12.04L63.4751 25.36C63.2671 25.808 63.0431 26.112 62.8031 26.272C62.5631 26.432 62.2511 26.512 61.8671 26.512ZM73.3479 22.192C72.8519 22.192 72.4679 22.056 72.1959 21.784C71.9399 21.496 71.8119 21.104 71.8119 20.608V6.64C71.8119 6.128 71.9479 5.744 72.2199 5.488C72.4919 5.216 72.8759 5.08 73.3719 5.08H79.1559C81.0119 5.08 82.4439 5.544 83.4519 6.472C84.4599 7.4 84.9639 8.696 84.9639 10.36C84.9639 12.024 84.4599 13.328 83.4519 14.272C82.4439 15.2 81.0119 15.664 79.1559 15.664H74.8839V20.608C74.8839 21.104 74.7559 21.496 74.4999 21.784C74.2439 22.056 73.8599 22.192 73.3479 22.192ZM74.8839 13.24H78.6759C79.7639 13.24 80.5879 13 81.1479 12.52C81.7079 12.024 81.9879 11.304 81.9879 10.36C81.9879 9.416 81.7079 8.704 81.1479 8.224C80.5879 7.744 79.7639 7.504 78.6759 7.504H74.8839V13.24ZM92.3782 22.24C91.0502 22.24 89.9062 21.992 88.9462 21.496C87.9862 21 87.2422 20.296 86.7142 19.384C86.2022 18.472 85.9462 17.392 85.9462 16.144C85.9462 14.928 86.1942 13.864 86.6902 12.952C87.2022 12.04 87.8982 11.328 88.7782 10.816C89.6742 10.288 90.6902 10.024 91.8262 10.024C92.6582 10.024 93.4022 10.16 94.0582 10.432C94.7302 10.704 95.2982 11.096 95.7622 11.608C96.2422 12.12 96.6022 12.744 96.8422 13.48C97.0982 14.2 97.2262 15.016 97.2262 15.928C97.2262 16.216 97.1222 16.44 96.9142 16.6C96.7222 16.744 96.4422 16.816 96.0742 16.816H88.3702V15.088H95.1142L94.7302 15.448C94.7302 14.712 94.6182 14.096 94.3942 13.6C94.1862 13.104 93.8742 12.728 93.4582 12.472C93.0582 12.2 92.5542 12.064 91.9462 12.064C91.2742 12.064 90.6982 12.224 90.2182 12.544C89.7542 12.848 89.3942 13.288 89.1382 13.864C88.8982 14.424 88.7782 15.096 88.7782 15.88V16.048C88.7782 17.36 89.0822 18.344 89.6902 19C90.3142 19.64 91.2262 19.96 92.4262 19.96C92.8422 19.96 93.3062 19.912 93.8182 19.816C94.3462 19.704 94.8422 19.52 95.3062 19.264C95.6422 19.072 95.9382 18.992 96.1942 19.024C96.4502 19.04 96.6502 19.128 96.7942 19.288C96.9542 19.448 97.0502 19.648 97.0822 19.888C97.1142 20.112 97.0662 20.344 96.9382 20.584C96.8262 20.824 96.6262 21.032 96.3382 21.208C95.7782 21.56 95.1302 21.824 94.3942 22C93.6742 22.16 93.0022 22.24 92.3782 22.24ZM104.931 22.24C103.891 22.24 103.019 22.064 102.315 21.712C101.627 21.36 101.115 20.848 100.779 20.176C100.443 19.488 100.275 18.64 100.275 17.632V12.52H99.0271C98.6431 12.52 98.3471 12.424 98.1391 12.232C97.9311 12.024 97.8271 11.744 97.8271 11.392C97.8271 11.024 97.9311 10.744 98.1391 10.552C98.3471 10.36 98.6431 10.264 99.0271 10.264H100.275V8.08C100.275 7.584 100.403 7.208 100.659 6.952C100.931 6.696 101.307 6.568 101.787 6.568C102.267 6.568 102.635 6.696 102.891 6.952C103.147 7.208 103.275 7.584 103.275 8.08V10.264H105.819C106.203 10.264 106.499 10.36 106.707 10.552C106.915 10.744 107.019 11.024 107.019 11.392C107.019 11.744 106.915 12.024 106.707 12.232C106.499 12.424 106.203 12.52 105.819 12.52H103.275V17.464C103.275 18.232 103.443 18.808 103.779 19.192C104.115 19.576 104.659 19.768 105.411 19.768C105.683 19.768 105.923 19.744 106.131 19.696C106.339 19.648 106.523 19.616 106.683 19.6C106.875 19.584 107.035 19.648 107.163 19.792C107.291 19.92 107.355 20.192 107.355 20.608C107.355 20.928 107.299 21.216 107.187 21.472C107.091 21.712 106.907 21.88 106.635 21.976C106.427 22.04 106.155 22.096 105.819 22.144C105.483 22.208 105.187 22.24 104.931 22.24ZM113.062 22.24C112.374 22.24 111.646 22.168 110.878 22.024C110.11 21.88 109.422 21.632 108.814 21.28C108.558 21.12 108.374 20.936 108.262 20.728C108.166 20.504 108.126 20.288 108.142 20.08C108.174 19.856 108.254 19.664 108.382 19.504C108.526 19.344 108.702 19.24 108.91 19.192C109.134 19.144 109.374 19.184 109.63 19.312C110.27 19.616 110.87 19.832 111.43 19.96C111.99 20.072 112.542 20.128 113.086 20.128C113.854 20.128 114.422 20 114.79 19.744C115.174 19.472 115.366 19.12 115.366 18.688C115.366 18.32 115.238 18.04 114.982 17.848C114.742 17.64 114.374 17.488 113.878 17.392L111.478 16.936C110.486 16.744 109.726 16.384 109.198 15.856C108.686 15.312 108.43 14.616 108.43 13.768C108.43 13 108.638 12.336 109.054 11.776C109.486 11.216 110.078 10.784 110.83 10.48C111.582 10.176 112.446 10.024 113.422 10.024C114.126 10.024 114.782 10.104 115.39 10.264C116.014 10.408 116.614 10.64 117.19 10.96C117.43 11.088 117.59 11.256 117.67 11.464C117.766 11.672 117.79 11.888 117.742 12.112C117.694 12.32 117.598 12.512 117.454 12.688C117.31 12.848 117.126 12.952 116.902 13C116.694 13.032 116.454 12.984 116.182 12.856C115.686 12.6 115.206 12.416 114.742 12.304C114.294 12.192 113.862 12.136 113.446 12.136C112.662 12.136 112.078 12.272 111.694 12.544C111.326 12.816 111.142 13.176 111.142 13.624C111.142 13.96 111.254 14.24 111.478 14.464C111.702 14.688 112.046 14.84 112.51 14.92L114.91 15.376C115.95 15.568 116.734 15.92 117.262 16.432C117.806 16.944 118.078 17.632 118.078 18.496C118.078 19.664 117.622 20.584 116.71 21.256C115.798 21.912 114.582 22.24 113.062 22.24Z" fill="#7B61FF"/>
</g>
<defs>
<clipPath id="clip0_223_818">
<rect width="119.495" height="29" fill="white"/>
</clipPath>
</defs>
</svg>
