<svg width="98" height="24" viewBox="0 0 98 24" fill="none" xmlns="http://www.w3.org/2000/svg">
<path fill-rule="evenodd" clip-rule="evenodd" d="M7.96687 0C9.86486 0 11.4069 2.31243 11.4069 5.08734C11.4069 7.86229 9.86486 10.1747 7.96687 10.1747C6.06893 10.1747 4.52685 7.86229 4.52685 5.08734C4.64547 2.31243 6.06893 0 7.96687 0ZM12.3559 12.3715C16.3891 12.3715 16.8635 14.9152 20.1849 19.4244C21.8456 22.6618 19.7105 24.6274 15.9146 23.818C14.2539 23.0087 13.0676 22.6618 11.8814 22.6618C9.74616 22.7774 9.27172 24.0493 6.89928 23.9337C5.00133 23.9337 4.17098 23.1243 4.05236 21.9681C3.81512 20.6963 4.40823 20.0025 5.00133 18.9619C7.25514 15.0308 9.62756 11.909 12.3559 12.3715ZM1.44269 7.63099C0.0192232 8.20909 -0.455262 10.2903 0.493716 12.3715C1.44269 14.4527 3.22201 15.7245 4.64547 15.1464C6.06893 14.5683 6.54341 12.4871 5.59444 10.4059C4.64547 8.32479 2.86615 7.05289 1.44269 7.63099ZM22.5574 7.63099C23.9808 8.20909 24.4553 10.2903 23.5063 12.3715C22.676 14.4527 20.778 15.7245 19.3546 15.1464C17.9311 14.5683 17.4566 12.4871 18.4056 10.4059C19.3546 8.32479 21.1339 7.05289 22.5574 7.63099ZM15.9146 0C17.8125 0 19.3546 2.31243 19.3546 5.08734C19.3546 7.86229 17.8125 10.1747 15.9146 10.1747C14.0166 10.1747 12.4745 7.86229 12.4745 5.08734C12.4745 2.31243 14.0166 0 15.9146 0Z" fill="#138854"/>
<path d="M33.242 18V5.4H36.14L39.992 13.266L43.808 5.4H46.706V18H44.276V9.54L40.946 16.236H39.02L35.672 9.54V18H33.242ZM50.2834 21.96L52.4794 16.992H51.9394L48.3034 8.928H50.9494L53.5414 14.778L55.8814 8.928H58.4554L52.8574 21.96H50.2834ZM60.0486 18V5.4H64.7646C65.7846 5.4 66.6306 5.574 67.3026 5.922C67.9746 6.27 68.4726 6.738 68.7966 7.326C69.1206 7.914 69.2826 8.586 69.2826 9.342C69.2826 10.038 69.1266 10.68 68.8146 11.268C68.5026 11.856 68.0106 12.336 67.3386 12.708C66.6666 13.068 65.8086 13.248 64.7646 13.248H62.4786V18H60.0486ZM62.4786 11.286H64.6206C65.4006 11.286 65.9586 11.112 66.2946 10.764C66.6426 10.404 66.8166 9.93 66.8166 9.342C66.8166 8.718 66.6426 8.238 66.2946 7.902C65.9586 7.554 65.4006 7.38 64.6206 7.38H62.4786V11.286ZM74.9503 18.216C74.0383 18.216 73.2283 18.024 72.5203 17.64C71.8243 17.244 71.2783 16.698 70.8823 16.002C70.4983 15.294 70.3063 14.478 70.3063 13.554C70.3063 12.606 70.4983 11.772 70.8823 11.052C71.2783 10.32 71.8243 9.75 72.5203 9.342C73.2163 8.922 74.0263 8.712 74.9503 8.712C75.8503 8.712 76.6363 8.91 77.3083 9.306C77.9803 9.702 78.5023 10.236 78.8743 10.908C79.2463 11.58 79.4323 12.342 79.4323 13.194C79.4323 13.314 79.4323 13.452 79.4323 13.608C79.4323 13.752 79.4203 13.902 79.3963 14.058H72.0343V12.582H76.9843C76.9483 11.994 76.7383 11.532 76.3543 11.196C75.9823 10.86 75.5143 10.692 74.9503 10.692C74.5423 10.692 74.1643 10.788 73.8163 10.98C73.4683 11.16 73.1923 11.442 72.9883 11.826C72.7963 12.21 72.7003 12.696 72.7003 13.284V13.806C72.7003 14.298 72.7903 14.73 72.9703 15.102C73.1623 15.462 73.4263 15.744 73.7623 15.948C74.0983 16.14 74.4883 16.236 74.9323 16.236C75.3763 16.236 75.7423 16.14 76.0303 15.948C76.3303 15.756 76.5523 15.51 76.6963 15.21H79.1803C79.0123 15.774 78.7303 16.284 78.3343 16.74C77.9383 17.196 77.4523 17.556 76.8763 17.82C76.3003 18.084 75.6583 18.216 74.9503 18.216ZM85.3853 18C84.7493 18 84.1913 17.904 83.7113 17.712C83.2433 17.508 82.8773 17.178 82.6133 16.722C82.3493 16.254 82.2173 15.618 82.2173 14.814V10.962H80.6693V8.928H82.2173L82.4873 6.462H84.6473V8.928H87.0413V10.962H84.6473V14.85C84.6473 15.258 84.7373 15.54 84.9173 15.696C85.0973 15.852 85.4033 15.93 85.8353 15.93H87.0233V18H85.3853ZM92.7944 18.216C91.9664 18.216 91.2464 18.084 90.6344 17.82C90.0224 17.556 89.5424 17.19 89.1944 16.722C88.8464 16.254 88.6484 15.726 88.6004 15.138H91.0124C91.0724 15.366 91.1744 15.576 91.3184 15.768C91.4624 15.948 91.6544 16.092 91.8944 16.2C92.1344 16.308 92.4224 16.362 92.7584 16.362C93.0824 16.362 93.3464 16.32 93.5504 16.236C93.7544 16.14 93.9044 16.014 94.0004 15.858C94.1084 15.702 94.1624 15.54 94.1624 15.372C94.1624 15.12 94.0904 14.928 93.9464 14.796C93.8024 14.652 93.5924 14.538 93.3164 14.454C93.0404 14.37 92.7044 14.286 92.3084 14.202C91.8764 14.118 91.4504 14.016 91.0304 13.896C90.6224 13.764 90.2564 13.602 89.9324 13.41C89.6084 13.218 89.3504 12.972 89.1584 12.672C88.9664 12.372 88.8704 12 88.8704 11.556C88.8704 11.016 89.0144 10.536 89.3024 10.116C89.5904 9.684 90.0104 9.342 90.5624 9.09C91.1144 8.838 91.7804 8.712 92.5604 8.712C93.6524 8.712 94.5164 8.958 95.1524 9.45C95.7884 9.942 96.1664 10.62 96.2864 11.484H94.0004C93.9284 11.208 93.7664 10.992 93.5144 10.836C93.2744 10.668 92.9504 10.584 92.5424 10.584C92.1104 10.584 91.7804 10.662 91.5524 10.818C91.3244 10.974 91.2104 11.178 91.2104 11.43C91.2104 11.598 91.2824 11.748 91.4264 11.88C91.5824 12.012 91.7984 12.126 92.0744 12.222C92.3504 12.306 92.6864 12.39 93.0824 12.474C93.7784 12.618 94.3904 12.786 94.9184 12.978C95.4464 13.158 95.8604 13.422 96.1604 13.77C96.4604 14.106 96.6104 14.598 96.6104 15.246C96.6104 15.822 96.4544 16.338 96.1424 16.794C95.8304 17.238 95.3864 17.586 94.8104 17.838C94.2464 18.09 93.5744 18.216 92.7944 18.216Z" fill="#138854"/>
</svg>
